<?xml version="1.0" encoding="utf-8"?>
<!-- Generator: Adobe Illustrator 26.0.3, SVG Export Plug-In . SVG Version: 6.00 Build 0)  -->
<svg version="1.1" xmlns="http://www.w3.org/2000/svg" xmlns:xlink="http://www.w3.org/1999/xlink" x="0px" y="0px"
	 viewBox="0 0 453.6 72.6" style="enable-background:new 0 0 453.6 72.6;" xml:space="preserve">
<style type="text/css">
	.st0{fill:#FD4703;}
	.st1{display:none;}
	.st2{display:inline;fill-rule:evenodd;clip-rule:evenodd;fill:none;stroke:#FF4713;stroke-width:2;stroke-miterlimit:10;}
	.st3{display:inline;fill-rule:evenodd;clip-rule:evenodd;fill:#FF4713;}
	.st4{display:inline;fill-rule:evenodd;clip-rule:evenodd;fill:#FFFFFF;}
</style>
<g id="Layer_1">
	<g id="Layer_2_00000159434592215844363900000010017913318791685045_">
		<g id="Layer_1-2">
			<path class="st0" d="M346.9,2.2h-28.7l-6.5,10c-0.6,0.8-1.1,1.6-1.5,2.4c-0.6,1.1-1.4,2.8-1.4,2.8h-0.6c0,0-0.1-1.2-0.3-2.4
				c-0.1-0.8-0.3-1.5-0.5-2.2l-4-10.7h-28.7l16.9,32L263.4,68l-17.9-33.9l26.9-31.9h-28.7c0,0-6.5,9.9-7.7,11.8
				c-0.7,1.1-1.3,2.2-1.8,3.4h-0.6c0,0-0.1-1.4-0.2-2.2c-0.1-0.8-0.7-2.6-0.7-2.6l-3.9-10.4h-28.6l17,32l-27.5,33l-13.6-65h-28.2
				l-32.2,63l-0.7-63H89L73.7,38h-0.6l-4-35.8H43L21,70.4h24.6L55,33l0.8,0c0,0,0,2.5,0,3.9c0,1.4,0.4,5,0.4,5l4.5,28.5h14.8
				c0,0,15.5-31.8,16.2-33.4c0.6-1.6,1.5-4,1.5-4h0.5c0,0-2.1,32.7-2.2,35c-0.1,0.8-0.2,1.5-0.1,2.3h48.6l3.4-8.4h19.2l0.9,8.5h52.5
				c0,0,10.7-15.1,11.2-15.8c0.6-0.9,1.1-1.9,1.5-2.9h0.7c0,0.5,0,1.1,0,1.6c0.1,0.7,0.3,1.3,0.5,1.9l5.8,15.1h54.6l10.8-15.3
				c0.5-0.7,1.9-3.3,1.9-3.3h0.8c0,0,0,0.4,0.1,1.2c0.1,0.7,0.3,1.3,0.5,1.9l6,15.5h28.9L320,34.1L346.9,2.2z M150.3,45.8l8-20.8
				h0.9v3.1c0,1.7,0.3,5.1,0.3,5.1l1.1,12.6H150.3z M351.6,2.2l-10.7,68.3h25.4L377,2.2L351.6,2.2L351.6,2.2z M407,19.5
				c3.3-0.4,6.7,0.1,9.7,1.4c2.2,1,4.2,2.2,6.2,3.6l9.7-17.4c0,0-7.8-6.2-22.1-6c-14.3,0.2-25.3,9-28.5,13.7
				c-3.3,4.7-6.3,11.6-4.6,18.2s7.7,9.5,12.5,10.9c4.8,1.3,7.7,1.3,9.9,1.9c2.2,0.7,3.1,1.8,2.8,3.5c-0.3,1.7-2.2,3.9-7.4,4
				c-5.2,0.1-10.8-3.2-13.3-5.2l-2.4-1.9l-10.9,19.2c8.3,4.3,17.6,6.5,27,6.3c15.1-0.6,24.4-7.5,28.2-12.8
				c3.8-5.2,6.8-12.8,4.2-20.8c-2.4-7.4-13.3-10.2-15.5-10.5c-2.6-0.5-5.1-1.1-7.6-1.9c-0.9-0.4-1.8-0.9-1.7-2.5
				C403.1,21.5,404.5,20,407,19.5L407,19.5L407,19.5z"/>
		</g>
	</g>
</g>
<g id="Layer_2" class="st1">
	<path class="st2" d="M437.7,2.1c0,0-9.8-0.4-12.9,8.8c-1.3,3.8,1.8,9.4,9.1,9.4c4.6,0,12.1-2.7,13.1-9
		C448.1,4.4,441.6,2.1,437.7,2.1z"/>
	<path class="st3" d="M440.2,6.5c-0.4-0.1-2.7-0.1-2.7-0.1h-5.1l-1.8,9.4h2.5l0.8-3.9h1.8l1.8,3.9h2.8l-2-4c0,0,2.7-0.1,3.2-1.5
		s0.6-1.8,0.3-2.6C441.5,7.1,440.9,6.6,440.2,6.5L440.2,6.5z"/>
	<path class="st4" d="M439.6,9.3c-0.3,0.7-0.9,1.1-1.7,1.2h-3.7l0.4-2.5h3.9C438.5,8,439.9,8.2,439.6,9.3z"/>
</g>
</svg>
